<?xml version="1.0" ?><svg data-name="Слой 1" id="Слой_1" viewBox="0 0 512 512" xmlns="http://www.w3.org/2000/svg"><defs><style>.cls-1{fill:gray;}.cls-2{fill:#333;}.cls-3{fill:#faec21;}.cls-4{fill:#ff1d25;}.cls-5{fill:#f0f0f0;}.cls-6{fill:#4d4d4d;}.cls-7{fill:#29a9e0;}.cls-8{fill:#1a1a1a;}</style></defs><title/><circle class="cls-1" cx="77.62" cy="327.44" r="10.17"/><circle class="cls-1" cx="415.62" cy="329.44" r="10.17"/><path class="cls-2" d="M78.62,286.94a40.5,40.5,0,1,0,40.5,40.5A40.5,40.5,0,0,0,78.62,286.94Zm0,68a27.5,27.5,0,1,1,27.5-27.5A27.5,27.5,0,0,1,78.62,354.94Z"/><path class="cls-2" d="M416.62,288.94a40.5,40.5,0,1,0,40.5,40.5A40.5,40.5,0,0,0,416.62,288.94Zm0,68a27.5,27.5,0,1,1,27.5-27.5A27.5,27.5,0,0,1,416.62,356.94Z"/><path class="cls-3" d="M125.12,334l239.66,6s-1-59,50.34-59.33,45,59.33,45,59.33,23.66.33,28-.33,8.33-2.67,9.66-5.34,1-20,1-24,3-11.33-.33-20a36.13,36.13,0,0,0-9.33-13.66s-9.67-25-22-29-52-12.67-52-12.67l-13.67-1.33s-37-32.34-49-42.34-31-21-31-21-35-18.33-89.67-21S74.45,146,74.45,146s-36.33,1-41,2.67-9,5.33-10.33,7.33-11,34.67-11,34.67-4.67,51.66-4.67,57.66-1.33,25-1.33,25L4.45,302.67.12,307.33,1.78,315s-.33,9,11,11.67,17.34,2.66,17.34,2.66S26.45,278,76.78,279,125.12,334,125.12,334Z"/><polygon class="cls-4" points="26.78 195.33 22.78 239.67 17.78 241 11.12 251.5 15.45 194.67 26.78 195.33"/><path class="cls-5" d="M459.37,246.25s3.5,16,13,22.5A55.13,55.13,0,0,0,491.12,277s-8.5-18.75-14.25-23.5S459.37,246.25,459.37,246.25Z"/><path class="cls-6" d="M27.12,158.33l-9.67,31-2,7.34,11.33.66s6-37.66,6.67-41,4-5.33,4-5.33l-6.33,2.33Z"/><path class="cls-6" d="M10.24,281.5,8.87,295.38,8.45,305l-4.33,4.67,1.66,9.66a16.82,16.82,0,0,0,7.67-3c3.67-2.66,5.33-10,6-16.66s1.92-14.05.79-15.92S10.24,281.5,10.24,281.5Z"/><path class="cls-6" d="M502.62,291.5c-1,0-16.75-.25-16.75-.25s4.25,9.75,8.75,12.75a17.34,17.34,0,0,0,8.75,3,51.7,51.7,0,0,0,.5-7A40.49,40.49,0,0,0,502.62,291.5Z"/><polygon class="cls-2" points="20.78 239.67 110.87 243.25 110.12 233.5 21.62 230 20.78 239.67"/><path class="cls-7" d="M347.12,185.25c-7.25-6-25.5-15.5-25.5-15.5l-4.5,2s23.25,13.5,35.5,24.5,29.25,30.5,31.5,31.75,14.25,0,14.25,0S354.37,191.25,347.12,185.25Z"/><path class="cls-7" d="M324.37,190c-19-13.5-56.75-16-56.75-16s-25.5-3.25-29.75-1.5-3.25,11.75-3.25,11.75l1.75,39.5s.25,2.75,2.5,8.25c2.33,5.71,14.25,6.25,14.25,6.25s88.5,6.75,95.25,5.25,9.5-4.75,8.5-17.25S343.37,203.5,324.37,190Z"/><path class="cls-8" d="M81.62,369.44a42,42,0,1,1,42-42A42,42,0,0,1,81.62,369.44Zm0-81a39,39,0,1,0,39,39A39,39,0,0,0,81.62,288.44Zm0,68a29,29,0,1,1,29-29A29,29,0,0,1,81.62,356.44Zm0-55a26,26,0,1,0,26,26A26,26,0,0,0,81.62,301.44Z"/><path class="cls-8" d="M419.62,371.44a42,42,0,1,1,42-42A42,42,0,0,1,419.62,371.44Zm0-81a39,39,0,1,0,39,39A39,39,0,0,0,419.62,290.44Zm0,68a29,29,0,1,1,29-29A29,29,0,0,1,419.62,358.44Zm0-55a26,26,0,1,0,26,26A26,26,0,0,0,419.62,303.44Z"/><path class="cls-8" d="M81.62,339.11a11.67,11.67,0,1,1,11.66-11.67A11.68,11.68,0,0,1,81.62,339.11Zm0-20.33a8.67,8.67,0,1,0,8.66,8.66A8.68,8.68,0,0,0,81.62,318.78Z"/><path class="cls-8" d="M419.62,341.11a11.67,11.67,0,1,1,11.66-11.67A11.68,11.68,0,0,1,419.62,341.11Zm0-20.33a8.67,8.67,0,1,0,8.66,8.66A8.68,8.68,0,0,0,419.62,320.78Z"/><path class="cls-8" d="M478.42,341.92c-6.19,0-11.85-.08-12.32-.09a1.48,1.48,0,0,1-1.47-1.66c0-.28,2.84-28.82-12.3-45.53-7.3-8.06-17.66-12.14-30.79-12.14h-.41c-13.5.09-24.49,4.37-32.67,12.73C372,312.05,372.28,340,372.28,340.31a1.49,1.49,0,0,1-.44,1.09,1.57,1.57,0,0,1-1.09.43l-239.67-6a1.53,1.53,0,0,1-1.06-.47,1.48,1.48,0,0,1-.4-1.08c0-.25.71-24.73-14.07-40.36-8-8.41-19-12.81-32.8-13.09-14.21-.29-25.32,3.69-33,11.8-13.53,14.23-12.12,36.71-12.11,36.93a1.48,1.48,0,0,1-.4,1.13,1.51,1.51,0,0,1-1.09.48c-.25,0-6.31,0-17.68-2.71-9.73-2.29-12.2-9.38-12.16-13L4.65,308A1.5,1.5,0,0,1,5,306.65l4-4.27,1.64-28.8c0-.21,1.33-19,1.33-24.91s4.48-55.69,4.67-57.8a1.59,1.59,0,0,1,.06-.3c2.28-7.71,9.84-33,11.19-35.07s5.88-6.06,11.08-7.91c4.75-1.7,37.72-2.65,41.46-2.76,1.08,0,103.37.7,157.45,3.34,54.36,2.65,89.93,21,90.29,21.17s19.3,11.21,31.26,21.17c11.24,9.37,44.79,38.66,48.66,42l13.19,1.29.18,0c1.62.35,39.88,8.73,52.14,12.7s21.52,26.33,22.8,29.54a37.9,37.9,0,0,1,9.47,14c2.57,6.69,1.6,12.55.89,16.82a26.4,26.4,0,0,0-.46,3.72c0,.51,0,1.26,0,2.16.09,11.92-.08,20.31-1.17,22.51-1.8,3.58-6.75,5.52-10.78,6.14C492.08,341.83,485,341.92,478.42,341.92Zm-10.68-3.07c8.51.11,23,.15,26.15-.33,4.08-.63,7.51-2.45,8.55-4.52.67-1.33.95-8.44.86-21.15,0-.91,0-1.66,0-2.18a27,27,0,0,1,.5-4.21c.66-3.93,1.55-9.32-.73-15.25a35,35,0,0,0-8.89-13.06,1.41,1.41,0,0,1-.44-.61c-.1-.24-9.56-24.38-21.07-28.11-11.84-3.85-49.69-12.16-51.77-12.61l-13.58-1.33a1.48,1.48,0,0,1-.84-.36c-.37-.32-37.12-32.44-49-42.31S326.89,172.07,326.7,172s-35.32-18.18-89-20.8c-54-2.63-156.24-3.32-157.27-3.33-14.46.4-37.23,1.42-40.49,2.58-4.3,1.54-8.4,5-9.58,6.76-1,1.65-7.11,21.74-10.77,34.11C19.32,194.35,15,243,15,248.67c0,6-1.28,24.32-1.34,25.1L12,303.08a1.51,1.51,0,0,1-.4.94l-3.8,4.09,1.5,6.9a1.22,1.22,0,0,1,0,.38c0,.31-.08,7.81,9.85,10.15a99.68,99.68,0,0,0,15.43,2.55c-.1-5.71.59-24.48,13-37.51,8.32-8.76,20.21-13,35.28-12.75,14.65.29,26.41,5,34.94,14.05,13.63,14.43,14.82,35.2,14.88,41l236.67,5.92c.16-6.33,1.79-30.06,17-45.64,8.76-9,20.47-13.56,34.81-13.65h.43c14,0,25.13,4.42,33,13.13C468.63,308.17,468.16,332.32,467.74,338.85Z"/><path class="cls-8" d="M23.45,275.83h-.09L12,275.16a1.49,1.49,0,0,1-1.41-1.56l1-21a1.61,1.61,0,0,1,.19-.68l6.67-11.66c1.51-2.64,4.92-2.53,6.7-2a1.49,1.49,0,0,1,1.1,1.5L25,274.39a1.51,1.51,0,0,1-.49,1.05A1.47,1.47,0,0,1,23.45,275.83Zm-9.76-3.57,8.32.49L23.23,241c-.79,0-1.75.09-2.14.78L14.6,253.1Z"/><path class="cls-8" d="M52.74,289.38a1.32,1.32,0,0,1-.39-.06c-11.18-3-24.8-6.89-26.17-8.26a38.54,38.54,0,0,1-4-6,1.5,1.5,0,0,1,2.62-1.47,37.31,37.31,0,0,0,3.49,5.28c1.5.93,13.77,4.55,24.88,7.55a1.5,1.5,0,0,1,1.06,1.84A1.52,1.52,0,0,1,52.74,289.38Z"/><path class="cls-8" d="M13.12,253a1.34,1.34,0,0,1-.48-.08,1.49,1.49,0,0,1-1-1.53L16,194.55a1.52,1.52,0,0,1,1.59-1.38l11.33.67a1.49,1.49,0,0,1,1.05.51,1.52,1.52,0,0,1,.36,1.12l-4,44.33a1.52,1.52,0,0,1-1.11,1.32l-4.43,1.18-6.36,10A1.48,1.48,0,0,1,13.12,253Zm5.71-56.75-3.76,49.38,3.45-5.43a1.49,1.49,0,0,1,.88-.65l4-1.06,3.77-41.75Z"/><path class="cls-8" d="M114.87,244.75h-.06l-90.09-3.58a1.51,1.51,0,0,1-1.06-.51,1.48,1.48,0,0,1-.37-1.12l.83-9.67a1.53,1.53,0,0,1,1.56-1.37l88.5,3.5a1.5,1.5,0,0,1,1.43,1.38l.75,9.75a1.5,1.5,0,0,1-.41,1.16A1.54,1.54,0,0,1,114.87,244.75Zm-88.46-6.52,86.83,3.45-.52-6.73L27,231.56Z"/><path class="cls-8" d="M495.12,278.5a1.27,1.27,0,0,1-.28,0A56.07,56.07,0,0,1,475.52,270c-9.88-6.76-13.47-22.74-13.62-23.42a1.5,1.5,0,0,1,.4-1.38,1.53,1.53,0,0,1,1.38-.41c.49.11,12.18,2.64,18.14,7.56s14.31,23.26,14.66,24a1.49,1.49,0,0,1-1.36,2.12Zm-29.65-30.18c1.36,4.58,5,14.57,11.74,19.19a56,56,0,0,0,15.18,7.23c-2.6-5.37-8.37-16.69-12.48-20.08C476.05,251.46,469.13,249.3,465.47,248.32Z"/><path class="cls-8" d="M28.78,196.83H28.7l-11.34-.67a1.48,1.48,0,0,1-1.13-.62,1.51,1.51,0,0,1-.23-1.27l2-7.33,9.69-31.05a1.29,1.29,0,0,1,.26-.49l4-5a1.39,1.39,0,0,1,.65-.47l6.33-2.34a1.5,1.5,0,0,1,1.29,2.7s-2.77,1.72-3.3,4.34c-.65,3.26-6.6,40.56-6.66,40.94A1.49,1.49,0,0,1,28.78,196.83Zm-9.4-3.55,8.14.48C28.61,186.91,33.38,157,34,154a7.57,7.57,0,0,1,.51-1.61l-.46.17-3.57,4.45-9.58,30.73Z"/><path class="cls-8" d="M7.78,318.83a1.51,1.51,0,0,1-1.48-1.24l-1.66-9.67A1.48,1.48,0,0,1,5,306.65l4-4.27.39-9.07,1.38-14A1.51,1.51,0,0,1,12.31,278c3.61.15,9.88.74,11.22,3,1.08,1.8.69,5.67-.09,12.34-.17,1.48-.35,3-.5,4.5-.63,6.35-2.3,14.59-6.61,17.73a18.36,18.36,0,0,1-8.42,3.28Zm-.06-10.69L9,315.6a15.48,15.48,0,0,0,5.56-2.48c2.66-1.94,4.57-7.48,5.39-15.6.15-1.51.33-3,.5-4.55.44-3.75,1.1-9.42.5-10.45-.55-.54-3.83-1.18-7.37-1.44l-1.23,12.44L12,303.06a1.54,1.54,0,0,1-.4,1ZM10.45,303h0Z"/><path class="cls-8" d="M505.37,306.5a18.81,18.81,0,0,1-9.58-3.25c-4.82-3.21-9.12-13-9.3-13.4a1.51,1.51,0,0,1,.13-1.43,1.48,1.48,0,0,1,1.27-.67c.16,0,15.75.25,16.73.25a1.51,1.51,0,0,1,1.45,1.12,41.72,41.72,0,0,1,1.3,8.88,52.86,52.86,0,0,1-.52,7.23A1.5,1.5,0,0,1,505.37,306.5Zm-15.12-15.71c1.65,3.26,4.52,8.17,7.2,10a16.84,16.84,0,0,0,6.61,2.62,50.09,50.09,0,0,0,.31-5.37,35.65,35.65,0,0,0-.94-7Z"/><path class="cls-8" d="M349.72,334.54a27.89,27.89,0,0,1-4-.29l-114.4-3a1.5,1.5,0,0,1-1.46-1.46l-4-172a1.5,1.5,0,0,1,.45-1.11,1.58,1.58,0,0,1,1.13-.42c.19,0,19.23,1,33.62,3,12.76,1.76,39.31,5.43,65.76,19.67,25.76,13.87,43.44,32.4,46,77.73,2.61,45.65-13.1,73.32-15.43,75.65C355.62,334.12,352.36,334.54,349.72,334.54Zm-116.89-6.25,113.08,3,.2,0c2.7.43,7.59.52,9.2-1.08,2.1-2.11,17.07-29.48,14.56-73.35S350.28,195,325.41,181.57c-26-14-52.16-17.6-64.75-19.33-11.83-1.64-26.86-2.61-31.76-2.9Z"/><path class="cls-8" d="M231.37,331.25h0c-8.4-.1-82.24-1.08-88.59-3.88-6.55-2.88-10.6-15-11-16.32-.69-1.45-7.56-16.28-14.06-44.46-6.46-28-6-50-3.29-76.5C116.78,167,120,161.42,124,156.55c3.56-4.37,22.49-3.51,26.25-3.3l77.23,3a1.51,1.51,0,0,1,1.44,1.56,1.49,1.49,0,0,1-1.56,1.44l-77.25-3c-10.34-.6-22.05.07-23.78,2.2-2.86,3.51-6.41,7.89-8.92,32-2.73,26.18-3.14,47.94,3.22,75.5,6.62,28.71,13.82,43.79,13.89,43.94a1.19,1.19,0,0,1,.08.2c1.06,3.37,4.81,12.55,9.42,14.58,4.38,1.92,54.68,3.22,87.42,3.62a1.5,1.5,0,0,1,0,3Z"/><path class="cls-8" d="M208.37,266c-5,0-9-3.7-9-8.25s4-8.25,9-8.25,9,3.7,9,8.25S213.33,266,208.37,266Zm0-13.5c-3.31,0-6,2.35-6,5.25s2.69,5.25,6,5.25,6-2.36,6-5.25S211.68,252.5,208.37,252.5Z"/><path class="cls-8" d="M253.12,267.5c-5,0-9-3.42-9-7.62s4-7.63,9-7.63,9,3.42,9,7.63S258.08,267.5,253.12,267.5Zm0-12.25c-3.31,0-6,2.08-6,4.63s2.69,4.62,6,4.62,6-2.08,6-4.62S256.43,255.25,253.12,255.25Z"/><path class="cls-8" d="M221.12,262.5H196.37a4.5,4.5,0,0,1,0-9h24.75a4.5,4.5,0,0,1,0,9Zm-24.75-6a1.5,1.5,0,0,0,0,3h24.75a1.5,1.5,0,0,0,0-3Z"/><path class="cls-8" d="M263.12,264.5H237.87a4.5,4.5,0,0,1,0-9h25.25a4.5,4.5,0,0,1,0,9Zm-25.25-6a1.5,1.5,0,0,0,0,3h25.25a1.5,1.5,0,0,0,0-3Z"/><rect class="cls-2" height="28" rx="12" ry="12" width="37" x="320.12" y="215"/><path class="cls-8" d="M453.87,296.5a1.5,1.5,0,0,1-.3-3l8.27-1.65L480,271.75a1.5,1.5,0,0,1,2.23,2l-18.5,20.5a1.48,1.48,0,0,1-.82.47l-8.75,1.75Z"/><path class="cls-8" d="M394.1,231.31c-2.48,0-4.7-.19-5.71-.75s-4-3.66-9.93-9.93c-6.3-6.66-14.92-15.8-21.84-22-12-10.77-35-24.19-35.26-24.32a1.52,1.52,0,0,1-.74-1.38,1.5,1.5,0,0,1,.89-1.29l4.5-2a1.48,1.48,0,0,1,1.3,0c.75.39,18.48,9.64,25.76,15.67s50.82,42.39,51.26,42.76a1.5,1.5,0,0,1-.81,2.64C401.79,230.92,397.68,231.31,394.1,231.31Zm-68.72-58.12c6.38,3.82,23.26,14.23,33.24,23.19,7,6.3,15.69,15.49,22,22.19,4.11,4.36,8.36,8.86,9.21,9.37s5.24.45,9.76.13c-9.8-8.18-42.35-35.37-48.45-40.41-6.29-5.21-21.32-13.26-24.6-15Z"/><path class="cls-8" d="M349,246.45c-18.8,0-82.9-4.84-91-5.45-1.27-.06-12.9-.77-15.52-7.18-2.31-5.65-2.6-8.56-2.61-8.68v-.07l-1.75-39.5c-.11-1.06-1-11.09,4.18-13.21,4.39-1.81,26.18.85,30.51,1.4h0a191.56,191.56,0,0,1,21.35,3c15.88,3.11,28,7.58,36.08,13.31,18.1,12.86,32,23.78,33.12,37.35,1,12.26-1.46,17-9.67,18.83A27.76,27.76,0,0,1,349,246.45ZM242.86,224.89a33.6,33.6,0,0,0,2.4,7.79c1.62,4,9.88,5.18,12.92,5.32,24.61,1.88,89.5,6.48,94.86,5.29,7.87-1.75,8-7.09,7.33-15.67-1-12.28-14.41-22.74-31.87-35.15-18.43-13.09-55.61-15.7-56-15.72-9.8-1.25-26.26-2.78-29.08-1.61-2.42,1-2.62,7.31-2.33,10.21Z"/><path class="cls-8" d="M348.12,243.5h-13a13.51,13.51,0,0,1-13.5-13.5v-4a13.51,13.51,0,0,1,13.5-13.5h13a13.52,13.52,0,0,1,13.5,13.5v4A13.52,13.52,0,0,1,348.12,243.5Zm-13-28a10.51,10.51,0,0,0-10.5,10.5v4a10.51,10.51,0,0,0,10.5,10.5h13a10.51,10.51,0,0,0,10.5-10.5v-4a10.51,10.51,0,0,0-10.5-10.5Z"/></svg>