<?xml version="1.0" ?><svg data-name="Слой 1" id="Слой_1" viewBox="0 0 512 512" xmlns="http://www.w3.org/2000/svg"><defs><style>.cls-1{fill:gray;}.cls-2{fill:#333;}.cls-3{fill:#b1b1b1;}.cls-4{fill:#29a9e0;}.cls-5{fill:#1a1a1a;}</style></defs><title/><path class="cls-1" d="M133.72,311.58a11.09,11.09,0,1,0,11.09,11.09A11.09,11.09,0,0,0,133.72,311.58Z"/><circle class="cls-1" cx="440.13" cy="322.67" r="11.09"/><path class="cls-2" d="M133.72,280.63A42.31,42.31,0,1,0,176,322.94,42.31,42.31,0,0,0,133.72,280.63Zm0,70.61A28.3,28.3,0,1,1,162,322.94,28.3,28.3,0,0,1,133.72,351.24Z"/><path class="cls-2" d="M440.13,280.63a42.31,42.31,0,1,0,42.31,42.31A42.31,42.31,0,0,0,440.13,280.63Zm0,70.61a28.3,28.3,0,1,1,28.31-28.3A28.3,28.3,0,0,1,440.13,351.24Z"/><path class="cls-3" d="M16.45,334.41s-14.75,1.45-17.64,0,3.42-19.62,6.32-23.31,13.7-25.29,33.46-39.78,36.1-24,39-25,4.74-.26,6.06-3.42S96.3,215.77,124,202.18s45.32-17.29,80.63-19.92,66.66,5,72.19,7.38,7.91,3.68,10.54,7.11,24.77,29.77,24.77,29.77,55.11,2.11,84.73,5.8,45.69,5.8,63.61,16.07,36.1,27.14,37.68,45.32a44.87,44.87,0,0,1-7.91,30s-2.63-57.7-53-55.33-45.84,52.19-45.84,52.19,2.1,7.62-5.27,8.94S334,329,330.53,329s-3.95-1.06-8.69-1.06-23.19,1.94-32.41,3.74-50.33,1.27-59.81,1.8-46.11.26-46.11.26-6.46-64.29-50.79-60.34S81.5,319,81.5,319s3.7,11.36,2.53,14-.38,3.43-7.76,4.61-38.2-1.24-38.2-1.24Z"/><path class="cls-1" d="M51.45,339.59s-30.3-1.32-31.88-1.85-8.7-1.84-8.7-9.48,19.76-27.67,49.54-45.06,50.72-25.29,73.31-26.34,51.58,11.06,57.9,35.3-7.11,44.27-7.11,44.27-1.58-27.67-11.86-40.05-21-20.82-38.93-20.29S101,284.87,93.87,295s-12.38,26.18-11.59,30.65,4.74,9,1.58,12.65-13.18,1.06-18.18,1.32S51.45,339.59,51.45,339.59Z"/><path class="cls-1" d="M325.79,330.05s-6.15-2.37-6.85-8.25,6.41-16.52,23.45-29.16,30-22.75,57.26-32.59,37.59-9.83,45.32-9.13S470.44,257,470.44,257s18.34,10,23,24,6,22.67,3.33,30a135.88,135.88,0,0,1-6.58,14.75S490.12,271,439.45,271s-48.05,51.61-48.05,51.61,3.4,8.15-5.27,8.93S325.79,330.05,325.79,330.05Z"/><path class="cls-4" d="M285.34,197.7s-11.06-.8-11.46,0,6.72,8.82,9.88,13.17,22.66,25.95,22.66,25.95.66-2.9,1.45-5.27c.67-2,3.68-2.87,4.6-3.1Z"/><path class="cls-4" d="M312.75,228.39l-.28.06.41.47Z"/><path class="cls-4" d="M262.55,203.36a8.67,8.67,0,0,0-5.4-2.11s-21.47-1.84-24-1.18-2,5-2,5l.79,30.17a6.61,6.61,0,0,0,1.58,3.69c1.58,1.45,6.59,1,6.59,1l38.2-.79s6.46,0,8.83-2.37-3-8.3-3-8.3S266.69,206.71,262.55,203.36Z"/><path class="cls-4" d="M218.42,207.58a11,11,0,0,0-1.84-6.46c-2.11-3-12.39.53-12.39.53s-31.88,8-35.57,10.93-3.69,5.8-3.69,5.8l-4.34,15.54s-2.38,5.8,1,8.17c1.62,1.13,4.61.92,4.61.92l12-.26s33.72-2.37,37.15-3.69,3-6.72,3-6.72Z"/><path class="cls-5" d="M137.72,366.42a43.81,43.81,0,1,1,43.81-43.81A43.86,43.86,0,0,1,137.72,366.42Zm0-84.62a40.81,40.81,0,1,0,40.81,40.81A40.85,40.85,0,0,0,137.72,281.8Zm0,70.61a29.81,29.81,0,1,1,29.81-29.8A29.84,29.84,0,0,1,137.72,352.41Zm0-56.61a26.81,26.81,0,1,0,26.81,26.81A26.84,26.84,0,0,0,137.72,295.8Z"/><path class="cls-5" d="M137.72,335.2a12.59,12.59,0,1,1,12.59-12.59A12.61,12.61,0,0,1,137.72,335.2Zm0-22.18a9.59,9.59,0,1,0,9.59,9.59A9.6,9.6,0,0,0,137.72,313Z"/><path class="cls-5" d="M444.13,366.42a43.81,43.81,0,1,1,43.81-43.81A43.86,43.86,0,0,1,444.13,366.42Zm0-84.62a40.81,40.81,0,1,0,40.81,40.81A40.85,40.85,0,0,0,444.13,281.8Zm0,70.61a29.81,29.81,0,1,1,29.81-29.8A29.84,29.84,0,0,1,444.13,352.41Zm0-56.61a26.81,26.81,0,1,0,26.81,26.81A26.84,26.84,0,0,0,444.13,295.8Z"/><path class="cls-5" d="M444.13,335.2a12.59,12.59,0,1,1,12.59-12.59A12.61,12.61,0,0,1,444.13,335.2Zm0-22.18a9.59,9.59,0,1,0,9.59,9.59A9.6,9.6,0,0,0,444.13,313Z"/><path class="cls-5" d="M81.09,341.09c-2,0-4-.19-6-.38a41.55,41.55,0,0,0-5.31-.29c-5,.26-14,0-14.35,0h0C46.21,340,24.7,339,23.09,338.5l-.48-.14c-2.28-.66-9.24-2.67-9.24-10.77,0-9.36,22.56-30.16,50.28-46.35,30.93-18.06,51.68-25.51,74-26.55,24.25-1.13,53.1,12.19,59.42,36.43,6.42,24.61-6.75,44.64-7.32,45.48a1.5,1.5,0,0,1-2.74-.75c0-.28-1.67-27.32-11.51-39.18-10.14-12.22-20.42-20.23-37.73-19.75-16,.47-31.2,7.63-38.67,18.25-7.25,10.28-12,25.9-11.35,29.53a21.11,21.11,0,0,0,1.3,3.94c1.26,3.16,2.7,6.73,0,9.94C87.3,340.56,84.35,341.09,81.09,341.09ZM70.45,337.4c1.44,0,3.13.16,4.9.32,4.3.41,9.66.9,11.37-1.09,1.49-1.74.8-3.75-.46-6.87a23.8,23.8,0,0,1-1.46-4.54c-.9-5.11,4.79-21.76,11.84-31.78,8.13-11.53,23.85-19,41-19.52,18.53-.53,29.43,7.94,40.13,20.83,7.9,9.53,10.79,27.36,11.76,36,3.42-7,9-22,4.6-38.89-4.66-17.88-27-35.55-56.38-34.18-21.79,1-42.15,8.34-72.63,26.14-31.41,18.35-48.79,37.52-48.79,43.76,0,5.15,3.58,6.88,7.08,7.89a4.78,4.78,0,0,1,.59.18c1.51.35,20.1,1.27,31.46,1.76.36,0,9.28.26,14.1,0Z"/><path class="cls-5" d="M74.61,341.41c-11.51,0-30.65-1.49-31.66-1.57l-21.49-1.92c-2.84.27-15.25,1.37-18.32-.16a2.82,2.82,0,0,1-1.43-2C.62,330.9,6.34,315.5,9,312.17c.51-.64,1.37-2,2.47-3.81,4.9-7.91,15.1-24.38,31.29-36.25,19.1-14,36-24,39.37-25.24a15.25,15.25,0,0,1,2.46-.64c1.56-.32,2.09-.43,2.72-1.95.46-1.09,11.5-26.93,41-41.45,28.94-14.22,47.64-17.57,81.18-20.07,35.88-2.68,67.22,5.07,72.89,7.5,5.51,2.36,8.23,3.79,11.14,7.57,2.38,3.1,21.21,25.54,24.3,29.22,6.36.26,56.61,2.35,84.2,5.78,28.53,3.55,45.75,5.7,64.17,16.26,8.48,4.87,36.35,22.61,38.42,46.49,1.62,18.57-7.82,30.6-8.23,31.11a1.49,1.49,0,0,1-1.63.48,1.5,1.5,0,0,1-1-1.35,79.6,79.6,0,0,0-7.49-28c-8.94-18.11-23.69-26.82-43.9-25.86-14.48.68-25.68,5.45-33.29,14.18-12.43,14.26-11.26,34.6-11.14,36.27.19.79.89,4.34-.92,7.21a7.86,7.86,0,0,1-5.57,3.44c-6,1.07-35.05.14-49-.31-3.57-.11-6.15-.19-6.85-.19a15.79,15.79,0,0,1-3.91-.5,18.33,18.33,0,0,0-4.78-.56c-4.6,0-22.9,1.91-32.12,3.71-6.25,1.22-26.14,1.39-42.13,1.52-7.9.07-14.72.13-17.89.31-9.42.52-44.71.27-46.2.26a1.5,1.5,0,0,1-1.48-1.35,112.33,112.33,0,0,0-8.67-31.24c-9.21-20-22.82-29.33-40.5-27.75-17.86,1.59-31.67,9.5-41,23.51a60.41,60.41,0,0,0-8.75,20.47c1,3.17,3.6,11.89,2.35,14.69-.15.33-.26.63-.37.9-1,2.74-2.15,3.56-8.52,4.58A50.25,50.25,0,0,1,74.61,341.41Zm-53.16-6.5h.13l21.62,1.93c.29,0,30.72,2.4,37.83,1.26,5.52-.88,5.67-1.3,6.2-2.68.12-.32.26-.67.43-1.06.56-1.25-.89-7.69-2.58-12.91a1.43,1.43,0,0,1-.06-.71c.07-.42,7.6-42.81,52.57-46.82,18.81-1.68,33.86,8.54,43.51,29.55a113.42,113.42,0,0,1,8.74,30.79c6.65,0,36.38.19,44.7-.27,3.23-.18,10.09-.24,18-.31,15-.12,35.6-.3,41.57-1.47,9.36-1.82,28-3.76,32.7-3.76a21.28,21.28,0,0,1,5.45.63,12.59,12.59,0,0,0,3.24.43c.74,0,3.21.08,6.94.2,12.78.4,42.72,1.36,48.39.35a5,5,0,0,0,3.56-2.09c1.29-2.05.54-4.94.53-5a2.56,2.56,0,0,1-.05-.27c-.08-.92-1.88-22.85,11.86-38.61,8.17-9.37,20.08-14.49,35.41-15.21,14.07-.67,25.86,3.22,35,11.55,13.95,12.71,18,32.14,19.11,40.8a44.93,44.93,0,0,0,5.33-25.43c-1.55-17.82-20.09-34.49-36.93-44.15-17.89-10.26-33.93-12.26-63-15.88S317.58,230,317,230a1.49,1.49,0,0,1-1.09-.53c-.9-1.08-22.18-26.41-24.81-29.83-2.36-3.07-4.45-4.29-9.94-6.65-5.3-2.27-36.64-9.85-71.49-7.26-33.13,2.48-51.58,5.77-80.08,19.77S90.47,244.39,90,245.44c-1.24,3-3.1,3.36-4.9,3.73a14.12,14.12,0,0,0-2,.52c-2.82,1-19.37,10.72-38.62,24.84C28.76,286.05,18.77,302.19,14,309.94c-1.19,1.92-2.05,3.31-2.66,4.09-2.86,3.64-7.57,18.66-6.67,21.11,1.93.7,9.85.45,16.66-.22Z"/><path class="cls-5" d="M13.29,309.68a1.51,1.51,0,0,1-.74-.19L9.3,307.64a1.47,1.47,0,0,1-.7-.9,20.86,20.86,0,0,1-.28-9.26A16.78,16.78,0,0,1,13,289.67a1.49,1.49,0,0,1,.65-.33l8.6-2.11a1.54,1.54,0,0,1,.74,0l3.69,1a1.5,1.5,0,0,1,.85,2.31L14.52,309A1.48,1.48,0,0,1,13.29,309.68Zm-1.94-4.32,1.5.85,11-15.65-1.23-.33-7.85,1.92a13.62,13.62,0,0,0-3.5,6A17.63,17.63,0,0,0,11.35,305.36Z"/><path class="cls-5" d="M384.75,333.21c-16.22,0-52.24-1.58-54-1.66a1.52,1.52,0,0,1-.47-.1c-.29-.11-7-2.77-7.8-9.48-.87-7.3,8.12-18.71,24-30.54l2.06-1.52c16.35-12.16,29.26-21.75,55.59-31.27,27.33-9.87,38.06-9.93,46-9.21s25,5.89,25.76,6.11a1.48,1.48,0,0,1,.29.12c.77.42,18.92,10.47,23.71,24.87,5.09,15.25,6,23.65,3.32,31a137.4,137.4,0,0,1-6.66,14.94,1.5,1.5,0,0,1-2.83-.7,71.94,71.94,0,0,0-6.27-26.83c-8.18-17.53-22.64-26.42-43-26.42-14.34,0-25.65,4.24-33.61,12.61-13.18,13.87-13,34.8-12.95,37.2.36,1,1.42,4.55-.28,7.38-1.17,1.94-3.31,3.07-6.35,3.35C389.94,333.16,387.66,333.21,384.75,333.21Zm-53.63-4.64c4.05.17,51.71,2.22,59.87,1.48,2-.18,3.39-.82,4.05-1.9,1-1.62.31-4.14,0-5a1.65,1.65,0,0,1-.11-.5c0-1-1-24.06,13.77-39.63,8.54-9,20.58-13.55,35.78-13.55,27,0,39.75,15.36,45.74,28.24a73.7,73.7,0,0,1,6.12,22.36c1.27-2.69,2.81-6.18,4.06-9.61,2.41-6.62,1.5-14.48-3.34-29-4.22-12.66-20.54-22.18-22.18-23.1-1.76-.53-17.9-5.31-25-6-7.59-.69-17.92-.61-44.68,9-25.91,9.37-38.67,18.85-54.82,30.86l-2.06,1.52c-17.74,13.17-23.4,23.2-22.85,27.78C326,326,330.15,328.12,331.12,328.57Z"/><path class="cls-5" d="M502,290.82a1.5,1.5,0,0,1-1.34-.82c-2.61-5.15-6.64-13.05-7-13.7-.51-.88-2.39-3.87-2.41-3.9a1.51,1.51,0,0,1,1.76-2.22,52.5,52.5,0,0,1,6.54,2.48c1,.63,2.29,1.95,3,6.08.6,3.72,1,10.22,1,10.49a1.51,1.51,0,0,1-1.11,1.54A1.74,1.74,0,0,1,502,290.82Zm-6-16.39.22.38c.27.48,2,3.76,3.62,7-.1-.94-.22-1.85-.34-2.61-.2-1.24-.68-3.41-1.66-4.06C497.68,275.06,497,274.78,496,274.43Z"/><path class="cls-5" d="M503.7,300.24h-.06a1.5,1.5,0,0,1-1.41-1.2l-2.31-11.33c0-.06,0-.11,0-.17l-1-11.46a1.51,1.51,0,0,1,1.52-1.63c3.31.05,5.33.65,6,1.78.86,1.44,2,8.74,1.44,12.08s-2.65,10.54-2.74,10.85A1.51,1.51,0,0,1,503.7,300.24Zm-.82-13,1,5.08c.43-1.67.82-3.34,1-4.45.45-2.76-.53-8.57-1-9.91a8.39,8.39,0,0,0-1.87-.36ZM504,278h0Z"/><path class="cls-5" d="M344.23,259.53a1.51,1.51,0,0,1-1.44-1.06c0-.15-4.72-15.46-6.61-19.11s-7.27-8.49-7.32-8.54a1.5,1.5,0,0,1,2-2.22c.24.21,5.89,5.36,8,9.38,1.73,3.33,5.36,14.87,6.49,18.52l73.42-2.07a1.5,1.5,0,1,1,.08,3l-74.56,2.11Z"/><path class="cls-5" d="M355.29,282.06a1.48,1.48,0,0,1-1.44-1.1l-5.27-19a1.5,1.5,0,1,1,2.89-.8l5.27,19a1.51,1.51,0,0,1-1.05,1.85A1.83,1.83,0,0,1,355.29,282.06Z"/><path class="cls-5" d="M359.11,279a1.51,1.51,0,0,1-1.44-1.08l-4.61-16.08a1.5,1.5,0,0,1,2.88-.83l4.62,16.08a1.51,1.51,0,0,1-1,1.85A1.52,1.52,0,0,1,359.11,279Z"/><path class="cls-5" d="M363.2,276.66a1.5,1.5,0,0,1-1.45-1.11L358.06,262a1.5,1.5,0,1,1,2.9-.78l3.69,13.57a1.51,1.51,0,0,1-1.06,1.84A1.74,1.74,0,0,1,363.2,276.66Z"/><path class="cls-5" d="M366.89,274.42a1.5,1.5,0,0,1-1.46-1.13l-2.9-11.46a1.52,1.52,0,0,1,1.09-1.83,1.5,1.5,0,0,1,1.82,1.09l2.9,11.46a1.49,1.49,0,0,1-1.09,1.82A1.12,1.12,0,0,1,366.89,274.42Z"/><path class="cls-5" d="M370.71,272.71a1.5,1.5,0,0,1-1.46-1.16L367,261.93a1.5,1.5,0,1,1,2.92-.68l2.24,9.62a1.51,1.51,0,0,1-1.12,1.8A2.09,2.09,0,0,1,370.71,272.71Z"/><path class="cls-5" d="M374.66,270.6a1.49,1.49,0,0,1-1.46-1.17l-1.72-7.64a1.51,1.51,0,0,1,1.14-1.8,1.5,1.5,0,0,1,1.79,1.14l1.71,7.64a1.49,1.49,0,0,1-1.13,1.79A1.24,1.24,0,0,1,374.66,270.6Z"/><path class="cls-5" d="M378.35,268.75a1.49,1.49,0,0,1-1.47-1.19l-1.19-5.8a1.5,1.5,0,0,1,2.94-.6l1.19,5.79a1.5,1.5,0,0,1-1.17,1.77A1,1,0,0,1,378.35,268.75Z"/><path class="cls-5" d="M352.92,289.83a1.49,1.49,0,0,1-1.44-1.08l-8.69-30.3a1.5,1.5,0,1,1,2.88-.83l8.69,30.3a1.47,1.47,0,0,1-1.44,1.91Z"/><path class="cls-5" d="M311.42,238.32a1.49,1.49,0,0,1-1.11-.49c-.8-.89-19.59-21.72-22.76-26.08-1.15-1.58-2.86-3.69-4.51-5.73-5.4-6.67-6.14-7.72-5.5-9,.45-.91.84-1.69,12.91-.83a1.53,1.53,0,0,1,1,.5l26.67,30.24a1.51,1.51,0,0,1,1.08,1.17,1.11,1.11,0,0,1,0,.19,1.5,1.5,0,0,1-2.23,1.84c-1.1.37-2.43,1-2.71,1.89-.76,2.27-1.41,5.1-1.41,5.12a1.51,1.51,0,0,1-1.09,1.12A1.2,1.2,0,0,1,311.42,238.32Zm-30.21-39.47c1,1.42,2.78,3.57,4.16,5.28,1.68,2.07,3.41,4.22,4.61,5.86,2.5,3.44,15.72,18.22,20.68,23.74.23-.84.5-1.78.79-2.65a6,6,0,0,1,3.42-3.31l-25.24-28.62C286.57,198.94,283.2,198.81,281.21,198.85Z"/><path class="cls-5" d="M243.61,241.54c-1.83,0-4.66-.23-6.05-1.5a7.92,7.92,0,0,1-2.06-4.66.34.34,0,0,1,0-.1l-.79-30.1c-.24-2.11.15-5.79,3.09-6.56,2.61-.69,20.62.81,24.42,1.13a10.42,10.42,0,0,1,6.29,2.44c4.21,3.41,21.11,24.5,21.83,25.4,1,1.09,6.14,7.07,2.92,10.29-2.73,2.73-9.16,2.81-9.89,2.81l-38.17.79C244.94,241.5,244.36,241.54,243.61,241.54Zm-5.12-6.4a5,5,0,0,0,1.09,2.68c.65.6,3.4.83,5.46.67l38.29-.8c2.29,0,6.4-.53,7.8-1.93.76-.76-1-4-3.08-6.23-6.07-7.57-18.27-22.44-21.44-25a7.2,7.2,0,0,0-4.4-1.78H262c-10.39-.9-22-1.6-23.46-1.23-.87.23-1,2.34-.87,3.37,0,.05,0,.1,0,.14Z"/><path class="cls-5" d="M170.66,244.53a9.16,9.16,0,0,1-4.87-1.2c-4.15-2.88-2-9-1.63-9.88l4.28-15.32c.07-.9.59-3.85,4.26-6.73s32.48-10.29,36.06-11.19c2.74-.94,11.51-3.6,14.05,0a12.5,12.5,0,0,1,2.11,7.36V232.3c0,.71.24,6.53-4,8.16-3.53,1.36-34.11,3.54-37.59,3.79l-12.06.26A6.14,6.14,0,0,1,170.66,244.53Zm-3.69-10s-1.83,4.74.52,6.37a7.27,7.27,0,0,0,3.66.66l12-.27c12.89-.91,34.31-2.69,36.65-3.59s2.08-5.16,2.07-5.21v-25a9.46,9.46,0,0,0-1.58-5.48c-.83-1.2-6.31-.42-10.66,1.08l-.12,0c-12.21,3.08-32.51,8.69-35,10.66-3,2.35-3.11,4.55-3.12,4.65a1.57,1.57,0,0,1-.05.37L167,234.33a1,1,0,0,1-.06.16Zm-1.39-.57h0Z"/><path class="cls-5" d="M236.41,322.31a4.49,4.49,0,0,1-3.23-1.16c-1.56-1.47-2.23-4.25-2.17-9,.13-10.26-1.43-90.18-1.45-91l-.13-26.1a1.48,1.48,0,0,1,0-.21c-41.93,1.89-57,13-58.57,14.28-3.63,2.91-5.52,8.2-7.38,15.79-2,8.06-5.44,27-5.37,28.79a11.87,11.87,0,0,0,1.17,3.64,1.5,1.5,0,1,1-2.69,1.34,15.16,15.16,0,0,1-1.47-4.78c-.16-2.18,3.58-22.12,5.44-29.71,2-8.2,4.13-14,8.42-17.41,1.67-1.33,17.49-13.05,60.56-15,36.77-1.63,42.8,5.72,45.06,8.48.14.16.25.31.36.43,2,2.15,27.28,31.52,31,37.07q.69,1,1.41,2.07c3.38,4.94,7.21,10.54,11.54,23.18,4.13,12.06,8.74,28.56,8.11,35.4-.49,5.42-1.29,9.71-6.67,11.56-.72.25-1.64.61-2.81,1.08a130.19,130.19,0,0,1-31.32,8.47c-18.69,2.73-45.08,2.83-48,2.65a8.24,8.24,0,0,0-.84,0C237.09,322.29,236.77,322.31,236.41,322.31Zm-4-127.57a1.63,1.63,0,0,1,0,.31l.13,26.09c0,.78,1.58,80.75,1.45,91.06-.06,4.82.74,6.31,1.23,6.77s.91.38,1.94.31a8.12,8.12,0,0,1,1.21,0c1.63.09,28,.2,47.39-2.63a127.06,127.06,0,0,0,30.64-8.29c1.21-.48,2.16-.86,2.95-1.13,3.15-1.08,4.11-2.93,4.66-9,.46-5.16-2.73-18.89-8-34.16-4.19-12.25-7.9-17.67-11.18-22.45-.48-.71-1-1.4-1.42-2.1-3.51-5.26-28.71-34.58-30.68-36.7-.15-.15-.31-.35-.49-.57C270.53,200.08,265.25,193.64,232.4,194.74Z"/><path class="cls-5" d="M233.7,321.85h0c-.91,0-22.5-.67-25.82-1.07-.53-.06-1.07-.1-1.6-.15-2.73-.21-6.46-.51-7.08-4.54a21.16,21.16,0,0,1,0-4,38,38,0,0,0-2.4-17.14A64.33,64.33,0,0,0,187.24,278a1.5,1.5,0,1,1,2.28-2,65.79,65.79,0,0,1,10,17.82,40.81,40.81,0,0,1,2.6,18.38,19.42,19.42,0,0,0,0,3.41c.23,1.46,1.18,1.75,4.36,2l1.71.16c3.19.39,25.34,1,25.56,1.05a1.5,1.5,0,0,1,1.46,1.54A1.52,1.52,0,0,1,233.7,321.85Z"/><path class="cls-5" d="M160.5,255.09A2.67,2.67,0,0,1,158,253.9c-.94-1.63.65-3.56,2.15-4.89a1.47,1.47,0,0,1,1-.38c.62,0,2.12-.08,3.72-.15,7.92-.4,8-.31,8.63.28a1.54,1.54,0,0,1,.48,1.11c0,1.37-.66,1.58-6.92,3.54-1.05.33-2,.61-2.37.76A12.82,12.82,0,0,1,160.5,255.09Zm1.22-3.47-.34.36a13.73,13.73,0,0,0,1.62-.41Z"/><path class="cls-5" d="M294.06,251.79c-1.06,0-1.38-.28-1.69-.9a1.56,1.56,0,0,1-.06-1.2c.29-.8.33-.92,7.6-4.09,1.47-.63,2.86-1.24,3.41-1.51a1.5,1.5,0,0,1,1.06-.1c1.93.52,4.21,1.55,4.1,3.43-.1,1.71-2.08,2.79-5.87,3.21-.45.05-1.38.2-2.47.37A51.9,51.9,0,0,1,294.06,251.79Zm10-4.75-1.17.52a12.17,12.17,0,0,0,1.64-.35Z"/><path class="cls-5" d="M100,250.71a5.79,5.79,0,1,1,5.79-5.79A5.8,5.8,0,0,1,100,250.71Zm0-8.57a2.79,2.79,0,1,0,2.79,2.78A2.79,2.79,0,0,0,100,242.14Z"/><path class="cls-5" d="M150.35,239.94a2,2,0,0,1-.42-.05l.23-1.48-.3,1.47a2.13,2.13,0,0,1-1.66-2.5l4.72-23.18a2.09,2.09,0,0,1,.91-1.35,2.12,2.12,0,0,1,1.59-.31,2.15,2.15,0,0,1,1.73,2.52l-4.72,23.17a2.14,2.14,0,0,1-2.08,1.71Z"/></svg>